<svg width="100%" viewBox="9400 5650 14200 10200" role="img" xmlns="http://www.w3.org/2000/svg" style="">
  <title style="fill:rgb(0, 0, 0);stroke:none;color:rgb(255, 255, 255);stroke-width:1px;stroke-linecap:butt;stroke-linejoin:miter;opacity:1;font-family:&quot;Anthropic Sans&quot;, -apple-system, BlinkMacSystemFont, &quot;Segoe UI&quot;, sans-serif;font-size:16px;font-weight:400;text-anchor:start;dominant-baseline:auto">Logo Carpintería Vereau</title>
  <desc style="fill:rgb(0, 0, 0);stroke:none;color:rgb(255, 255, 255);stroke-width:1px;stroke-linecap:butt;stroke-linejoin:miter;opacity:1;font-family:&quot;Anthropic Sans&quot;, -apple-system, BlinkMacSystemFont, &quot;Segoe UI&quot;, sans-serif;font-size:16px;font-weight:400;text-anchor:start;dominant-baseline:auto">Símbolo MV con arcos laterales, V interior y punto arriba</desc>

  <path fill="#D81B60" stroke="none" d="&#10;    M 16639,15750 C 16593,15751 16547,15751 16501,15751&#10;    16454,15751 16408,15751 16362,15750 L 16639,15750 Z&#10;&#10;    M 17251,6501 C 17251,6632 17216,6762 17150,6876&#10;    17085,6990 16990,7085 16876,7150 16762,7216 16632,7251&#10;    16501,7251 16369,7251 16239,7216 16125,7150 16011,7085&#10;    15916,6990 15851,6876 15785,6762 15750,6632 15750,6501&#10;    15750,6369 15785,6239 15851,6125 15916,6011 16011,5916&#10;    16125,5851 16239,5785 16369,5750 16501,5750 16632,5750&#10;    16762,5785 16876,5851 16990,5916 17085,6011 17150,6125&#10;    17216,6239 17251,6369 17251,6500 L 17251,6501 Z&#10;&#10;    M 18945,6065 C 19309,6162 19662,6280 20001,6420&#10;    21065,6859 21949,7490 22563,8250 23178,9010 23501,9873&#10;    23501,10750 23501,11628 23178,12491 22563,13251&#10;    22048,13888 21344,14435 20502,14853 L 20005,13661&#10;    C 20462,13380 20852,13045 21156,12670 21628,12086&#10;    21876,11424 21876,10750 21876,10076 21628,9414&#10;    21156,8830 20684,8247 20005,7762 19188,7425&#10;    18959,7331 18722,7249 18478,7180 L 18945,6065 Z&#10;&#10;    M 14522,7180 C 14279,7249 14041,7331 13813,7425&#10;    12996,7762 12317,8247 11845,8831 11373,9414&#10;    11125,10076 11125,10750 11125,11424 11373,12086&#10;    11845,12670 12149,13045 12538,13380 12995,13661&#10;    L 12499,14853 C 11657,14435 10953,13888 10438,13251&#10;    9823,12491 9500,11628 9500,10751 9500,9873 9823,9010&#10;    10438,8250 11052,7490 11936,6859 13000,6420&#10;    13339,6280 13692,6162 14055,6065 L 14522,7180 Z&#10;&#10;    M 13814,7425 C 14042,7331 14279,7249 14523,7181&#10;    L 16501,11900 18479,7180&#10;    C 18723,7249 18960,7331 19189,7425&#10;    19319,7479 19445,7536 19567,7596&#10;    L 16502,14951 13438,7596&#10;    C 13559,7535 13685,7478 13814,7425 Z&#10;  " style="fill:rgb(216, 27, 96);stroke:none;color:rgb(255, 255, 255);stroke-width:1px;stroke-linecap:butt;stroke-linejoin:miter;opacity:1;font-family:&quot;Anthropic Sans&quot;, -apple-system, BlinkMacSystemFont, &quot;Segoe UI&quot;, sans-serif;font-size:16px;font-weight:400;text-anchor:start;dominant-baseline:auto"/>
</svg>